name rise30.3154peak39.0474fall46.5389.mot
datacolumns 19
datarows 30
range 10.60329900000000 10.65163100000000
endheader
time	ground_force1_vx	ground_force1_vy	ground_force1_vz	ground_force1_px	ground_force1_py	ground_force1_pz	ground_force2_vx	ground_force2_vy	ground_force2_vz	ground_force2_px	ground_force2_py	ground_force2_pz	ground_torque1_x	ground_torque1_y	ground_torque1_z	ground_torque2_x	ground_torque2_y	ground_torque2_z	
10.60329900000000	49.95713200000000	741.22348999999997	59.37194000000000	0.35594300000000	0.00000000000000	0.11434500000000	0.00000000000000	0.00000000000000	0.00000000000000	0.00000000000000	0.00000000000000	0.00000000000000	0.00000000000000	29.46716600000000	0.00000000000000	0.00000000000000	0.00000000000000	0.00000000000000	
10.60497500000000	49.25395500000000	743.25032599999997	59.38375900000000	0.35442500000000	0.00000000000000	0.11440600000000	0.00000000000000	0.00000000000000	0.00000000000000	0.00000000000000	0.00000000000000	0.00000000000000	0.00000000000000	29.44550400000000	0.00000000000000	0.00000000000000	0.00000000000000	0.00000000000000	
10.60663200000000	48.56511000000000	745.22158300000001	59.39307400000000	0.35295000000000	0.00000000000000	0.11446500000000	0.00000000000000	0.00000000000000	0.00000000000000	0.00000000000000	0.00000000000000	0.00000000000000	0.00000000000000	29.42397900000000	0.00000000000000	0.00000000000000	0.00000000000000	0.00000000000000	
10.60829900000000	47.89117500000000	747.13495000000000	59.39993000000000	0.35151800000000	0.00000000000000	0.11452200000000	0.00000000000000	0.00000000000000	0.00000000000000	0.00000000000000	0.00000000000000	0.00000000000000	0.00000000000000	29.40268500000000	0.00000000000000	0.00000000000000	0.00000000000000	0.00000000000000	
10.60996700000000	47.23262900000000	748.98805100000004	59.40431400000000	0.35013100000000	0.00000000000000	0.11457600000000	0.00000000000000	0.00000000000000	0.00000000000000	0.00000000000000	0.00000000000000	0.00000000000000	0.00000000000000	29.38166800000000	0.00000000000000	0.00000000000000	0.00000000000000	0.00000000000000	
10.61163400000000	46.58985300000000	750.77846299999999	59.40615600000000	0.34879000000000	0.00000000000000	0.11462900000000	0.00000000000000	0.00000000000000	0.00000000000000	0.00000000000000	0.00000000000000	0.00000000000000	0.00000000000000	29.36093300000000	0.00000000000000	0.00000000000000	0.00000000000000	0.00000000000000	
10.61329500000000	45.96313900000000	752.50373600000000	59.40533000000000	0.34749400000000	0.00000000000000	0.11467900000000	0.00000000000000	0.00000000000000	0.00000000000000	0.00000000000000	0.00000000000000	0.00000000000000	0.00000000000000	29.34044700000000	0.00000000000000	0.00000000000000	0.00000000000000	0.00000000000000	
10.61496800000000	45.35268600000000	754.16141000000005	59.40166500000000	0.34624400000000	0.00000000000000	0.11472700000000	0.00000000000000	0.00000000000000	0.00000000000000	0.00000000000000	0.00000000000000	0.00000000000000	0.00000000000000	29.32013700000000	0.00000000000000	0.00000000000000	0.00000000000000	0.00000000000000	
10.61662800000000	44.75860800000000	755.74903500000005	59.39494400000000	0.34504100000000	0.00000000000000	0.11477300000000	0.00000000000000	0.00000000000000	0.00000000000000	0.00000000000000	0.00000000000000	0.00000000000000	0.00000000000000	29.29989800000000	0.00000000000000	0.00000000000000	0.00000000000000	0.00000000000000	
10.61829500000000	44.18093600000000	757.26418699999999	59.38490800000000	0.34388400000000	0.00000000000000	0.11481600000000	0.00000000000000	0.00000000000000	0.00000000000000	0.00000000000000	0.00000000000000	0.00000000000000	0.00000000000000	29.27959400000000	0.00000000000000	0.00000000000000	0.00000000000000	0.00000000000000	
10.61996700000000	43.61962500000000	758.70448699999997	59.37126800000000	0.34277300000000	0.00000000000000	0.11485700000000	0.00000000000000	0.00000000000000	0.00000000000000	0.00000000000000	0.00000000000000	0.00000000000000	0.00000000000000	29.25905700000000	0.00000000000000	0.00000000000000	0.00000000000000	0.00000000000000	
10.62162600000000	43.07455400000000	760.06761700000004	59.35370300000000	0.34170800000000	0.00000000000000	0.11489500000000	0.00000000000000	0.00000000000000	0.00000000000000	0.00000000000000	0.00000000000000	0.00000000000000	0.00000000000000	29.23809900000000	0.00000000000000	0.00000000000000	0.00000000000000	0.00000000000000	
10.62329800000000	42.54553300000000	761.35133599999995	59.33186600000000	0.34068700000000	0.00000000000000	0.11493100000000	0.00000000000000	0.00000000000000	0.00000000000000	0.00000000000000	0.00000000000000	0.00000000000000	0.00000000000000	29.21650600000000	0.00000000000000	0.00000000000000	0.00000000000000	0.00000000000000	
10.62496600000000	42.03231000000000	762.55349400000000	59.30539300000000	0.33971100000000	0.00000000000000	0.11496400000000	0.00000000000000	0.00000000000000	0.00000000000000	0.00000000000000	0.00000000000000	0.00000000000000	0.00000000000000	29.19404500000000	0.00000000000000	0.00000000000000	0.00000000000000	0.00000000000000	
10.62662800000000	41.53456800000000	763.67204600000002	59.27390600000000	0.33877900000000	0.00000000000000	0.11499400000000	0.00000000000000	0.00000000000000	0.00000000000000	0.00000000000000	0.00000000000000	0.00000000000000	0.00000000000000	29.17046800000000	0.00000000000000	0.00000000000000	0.00000000000000	0.00000000000000	
10.62829700000000	41.05194000000000	764.70506799999998	59.23701700000000	0.33788800000000	0.00000000000000	0.11502200000000	0.00000000000000	0.00000000000000	0.00000000000000	0.00000000000000	0.00000000000000	0.00000000000000	0.00000000000000	29.14551500000000	0.00000000000000	0.00000000000000	0.00000000000000	0.00000000000000	
10.62996000000000	40.58400600000000	765.65076499999998	59.19433500000000	0.33703900000000	0.00000000000000	0.11504700000000	0.00000000000000	0.00000000000000	0.00000000000000	0.00000000000000	0.00000000000000	0.00000000000000	0.00000000000000	29.11891400000000	0.00000000000000	0.00000000000000	0.00000000000000	0.00000000000000	
10.63163200000000	40.13030000000000	766.50748699999997	59.14546900000000	0.33623000000000	0.00000000000000	0.11506900000000	0.00000000000000	0.00000000000000	0.00000000000000	0.00000000000000	0.00000000000000	0.00000000000000	0.00000000000000	29.09038700000000	0.00000000000000	0.00000000000000	0.00000000000000	0.00000000000000	
10.63329500000000	39.69031800000000	767.27373499999999	59.09003500000000	0.33545900000000	0.00000000000000	0.11508900000000	0.00000000000000	0.00000000000000	0.00000000000000	0.00000000000000	0.00000000000000	0.00000000000000	0.00000000000000	29.05965100000000	0.00000000000000	0.00000000000000	0.00000000000000	0.00000000000000	
10.63496100000000	39.26351700000000	767.94817399999999	59.02766100000000	0.33472400000000	0.00000000000000	0.11510600000000	0.00000000000000	0.00000000000000	0.00000000000000	0.00000000000000	0.00000000000000	0.00000000000000	0.00000000000000	29.02642500000000	0.00000000000000	0.00000000000000	0.00000000000000	0.00000000000000	
10.63662800000000	38.84932600000000	768.52963799999998	58.95798900000000	0.33402500000000	0.00000000000000	0.11512000000000	0.00000000000000	0.00000000000000	0.00000000000000	0.00000000000000	0.00000000000000	0.00000000000000	0.00000000000000	28.99042500000000	0.00000000000000	0.00000000000000	0.00000000000000	0.00000000000000	
10.63829600000000	38.44714700000000	769.01713900000004	58.88067900000000	0.33335800000000	0.00000000000000	0.11513200000000	0.00000000000000	0.00000000000000	0.00000000000000	0.00000000000000	0.00000000000000	0.00000000000000	0.00000000000000	28.95137600000000	0.00000000000000	0.00000000000000	0.00000000000000	0.00000000000000	
10.63996700000000	38.05635900000000	769.40987199999995	58.79541800000000	0.33272300000000	0.00000000000000	0.11514100000000	0.00000000000000	0.00000000000000	0.00000000000000	0.00000000000000	0.00000000000000	0.00000000000000	0.00000000000000	28.90900600000000	0.00000000000000	0.00000000000000	0.00000000000000	0.00000000000000	
10.64163300000000	37.67632300000000	769.70722300000000	58.70191800000000	0.33211800000000	0.00000000000000	0.11514800000000	0.00000000000000	0.00000000000000	0.00000000000000	0.00000000000000	0.00000000000000	0.00000000000000	0.00000000000000	28.86305400000000	0.00000000000000	0.00000000000000	0.00000000000000	0.00000000000000	
10.64329300000000	37.30639100000000	769.90876900000001	58.59992000000000	0.33153900000000	0.00000000000000	0.11515300000000	0.00000000000000	0.00000000000000	0.00000000000000	0.00000000000000	0.00000000000000	0.00000000000000	0.00000000000000	28.81327200000000	0.00000000000000	0.00000000000000	0.00000000000000	0.00000000000000	
10.64496300000000	36.94590100000000	770.01428299999998	58.48920200000000	0.33098500000000	0.00000000000000	0.11515500000000	0.00000000000000	0.00000000000000	0.00000000000000	0.00000000000000	0.00000000000000	0.00000000000000	0.00000000000000	28.75942400000000	0.00000000000000	0.00000000000000	0.00000000000000	0.00000000000000	
10.64663100000000	36.59418900000000	770.02373799999998	58.36957700000000	0.33045400000000	0.00000000000000	0.11515500000000	0.00000000000000	0.00000000000000	0.00000000000000	0.00000000000000	0.00000000000000	0.00000000000000	0.00000000000000	28.70128900000000	0.00000000000000	0.00000000000000	0.00000000000000	0.00000000000000	
10.64830000000000	36.25058800000000	769.93730400000004	58.24089400000000	0.32994300000000	0.00000000000000	0.11515300000000	0.00000000000000	0.00000000000000	0.00000000000000	0.00000000000000	0.00000000000000	0.00000000000000	0.00000000000000	28.63866800000000	0.00000000000000	0.00000000000000	0.00000000000000	0.00000000000000	
10.64995800000000	35.91443300000000	769.75535200000002	58.10304600000000	0.32945100000000	0.00000000000000	0.11514900000000	0.00000000000000	0.00000000000000	0.00000000000000	0.00000000000000	0.00000000000000	0.00000000000000	0.00000000000000	28.57137600000000	0.00000000000000	0.00000000000000	0.00000000000000	0.00000000000000	
10.65163100000000	35.58506500000000	769.47844999999995	57.95596600000000	0.32897300000000	0.00000000000000	0.11514200000000	0.00000000000000	0.00000000000000	0.00000000000000	0.00000000000000	0.00000000000000	0.00000000000000	0.00000000000000	28.49925300000000	0.00000000000000	0.00000000000000	0.00000000000000	0.00000000000000	
